<svg xmlns="http://www.w3.org/2000/svg" viewBox="0 0 29.59 31.7"><defs><style>.cls-1{fill:#302f82;}</style></defs><title>Asset 4</title><g id="Layer_2" data-name="Layer 2"><g id="Layer_1-2" data-name="Layer 1"><path class="cls-1" d="M29.06,2.11h-3.7V.53A.53.53,0,0,0,24.83,0h-3.7a.53.53,0,0,0-.53.53V2.11H9V.53A.53.53,0,0,0,8.45,0H4.75a.53.53,0,0,0-.53.53V2.11H.53A.53.53,0,0,0,0,2.64V31.17a.53.53,0,0,0,.53.53H29.06a.53.53,0,0,0,.53-.53V2.64A.53.53,0,0,0,29.06,2.11Zm-7.4-1.06H24.3V4.23H21.66V1.06Zm-16.38,0H7.92V4.23H5.28V1.06ZM1.06,3.17H4.23V4.75a.53.53,0,0,0,.53.53h3.7A.53.53,0,0,0,9,4.75V3.17H20.6V4.75a.53.53,0,0,0,.53.53h3.7a.53.53,0,0,0,.53-.53V3.17h3.17V7.92H1.06Zm0,27.47V9H28.53V30.64Z"/><path class="cls-1" d="M19,12.15H4.75V27.47H24.83V12.15H19Zm-3.7,1.06H19v3.7h-3.7ZM19,21.66h-3.7V18H19ZM10.57,18h3.7v3.7h-3.7Zm0-4.75h3.7v3.7h-3.7Zm-4.75,0h3.7v3.7H5.81Zm0,4.75h3.7v3.7H5.81Zm3.7,8.45H5.81v-3.7h3.7Zm4.75,0h-3.7v-3.7h3.7Zm4.75,0h-3.7v-3.7H19Zm4.75,0h-3.7v-3.7h3.7Zm0-4.75h-3.7V18h3.7Zm0-8.45v3.7h-3.7v-3.7Z"/></g></g></svg>