<svg xmlns="http://www.w3.org/2000/svg" viewBox="0 0 22.07 31.39"><defs><style>.cls-1{fill:#302f82;}</style></defs><title>Asset 6</title><g id="Layer_2" data-name="Layer 2"><g id="Layer_1-2" data-name="Layer 1"><path class="cls-1" d="M11,0A11,11,0,0,0,1.65,16.84L10.41,31a.92.92,0,0,0,.78.43h0a.92.92,0,0,0,.78-.45l8.54-14.25A11,11,0,0,0,11,0Zm7.9,15.74-7.76,13-8-12.83a9.2,9.2,0,1,1,15.72-.12Z"/><path class="cls-1" d="M11,5.52A5.52,5.52,0,1,0,16.55,11,5.52,5.52,0,0,0,11,5.52Zm0,9.21A3.69,3.69,0,1,1,14.72,11,3.69,3.69,0,0,1,11,14.72Z"/></g></g></svg>