<?xml version="1.0" encoding="utf-8"?>
<!-- Generator: Adobe Illustrator 21.0.0, SVG Export Plug-In . SVG Version: 6.00 Build 0)  -->
<svg version="1.1" id="Layer_1" xmlns="http://www.w3.org/2000/svg" xmlns:xlink="http://www.w3.org/1999/xlink" x="0px" y="0px"
	 viewBox="0 0 154.1 46.3" style="enable-background:new 0 0 154.1 46.3;" xml:space="preserve">
<style type="text/css">
	.st0{fill:#291670;}
	.st1{fill:#291670;}
</style>
<g>
	<path class="st0" d="M65,38.7C64.2,38,63.8,37,63.8,36c0-3.1,3.6-4.7,5.9-2.7L77,40h0.2l7.2-6.7c2.3-2,5.9-0.3,5.9,2.7
		c0,1.1-0.5,2.1-1.3,2.7l-8.8,7.6h73.9c-12.8,0-24.8-6.9-30.7-18.2C114.7,11.4,97.2,0,77.1,0C56.9,0,39.5,11.4,30.7,28.1
		C24.8,39.4,12.8,46.3,0,46.3h73.9L65,38.7z M69.7,19.3L77,26h0.2l7.2-6.7c2.3-2,5.9-0.3,5.9,2.7c0,1.1-0.5,2.1-1.3,2.7L79.4,33
		c-1.3,1.2-3.3,1.2-4.7,0L65,24.7C64.2,24,63.8,23,63.8,22C63.8,18.9,67.4,17.3,69.7,19.3z"/>
	<rect x="57.6" y="16" class="st1" width="40.5" height="30.2"/>
</g>
</svg>
