<svg xmlns="http://www.w3.org/2000/svg" viewBox="0 0 191.36 191.36"><defs><style>.cls-1{fill:#ffcb00;}</style></defs><title>Asset 1</title><g id="Layer_2" data-name="Layer 2"><g id="Layer_1-2" data-name="Layer 1"><path class="cls-1" d="M188.17,0H3.19A3.19,3.19,0,0,0,0,3.19H0V67H6.38V6.38H185V76.54H73.35v6.38H188.17a3.19,3.19,0,0,0,3.19-3.19h0V3.19A3.19,3.19,0,0,0,188.17,0Z"/><rect class="cls-1" x="105.25" y="15.95" width="63.79" height="6.38"/><rect class="cls-1" x="114.82" y="35.08" width="63.79" height="6.38"/><rect class="cls-1" x="102.06" y="54.22" width="63.79" height="6.38"/><path class="cls-1" d="M101.8,27.5a10.29,10.29,0,0,0-13.46-5.55l-.27.12L62.22,35.48a15.78,15.78,0,0,0,1.57-6.77,15.95,15.95,0,1,0-28.62,9.57H35A21.89,21.89,0,0,0,14.7,52.43L6.19,81.78a10.22,10.22,0,1,0,19.18,7L28.7,78.19v46.16A15.9,15.9,0,0,0,8,148.41a14.69,14.69,0,0,0-8,13v26.73a3.19,3.19,0,0,0,3.19,3.19h31.9a3.19,3.19,0,0,0,3.19-3.19h0V161.44a14.66,14.66,0,0,0-5.69-11.55H56.72A14.66,14.66,0,0,0,51,161.44v26.73a3.19,3.19,0,0,0,3.19,3.19H86.11a3.19,3.19,0,0,0,3.19-3.19h0V161.44a14.69,14.69,0,0,0-8-13A15.93,15.93,0,0,0,67,121.4V56.16L96.25,41A10.29,10.29,0,0,0,101.8,27.5Zm-54-8.36a9.57,9.57,0,1,1-9.57,9.57A9.57,9.57,0,0,1,47.84,19.14ZM19.14,127.46A9.57,9.57,0,1,1,9.57,137,9.57,9.57,0,0,1,19.14,127.46ZM31.89,185H6.38V161.44a8.37,8.37,0,0,1,8.36-8.36h8.8a8.37,8.37,0,0,1,8.36,8.36Zm51-23.54V185H57.41V161.44a8.37,8.37,0,0,1,8.36-8.36h8.8A8.37,8.37,0,0,1,82.92,161.44Zm-12.76-34A9.57,9.57,0,1,1,60.6,137,9.58,9.58,0,0,1,70.17,127.46ZM96,32.82a4.1,4.1,0,0,1-2.41,2.36L62.32,51.39a3.19,3.19,0,0,0-1.72,2.83v70.13a15.73,15.73,0,0,0-5,19.17H51V89.3H44.65v54.22h-11a15.8,15.8,0,0,0,1.4-6.38h0V57.41a3.19,3.19,0,0,0-6.23-1l-9.52,30.3a3.83,3.83,0,0,1-4.91,2.3L14,88.88a3.91,3.91,0,0,1-1.78-5.06l8.51-29.35A15.41,15.41,0,0,1,35,44.65H57.61a3.17,3.17,0,0,0,1.47-.36l31.7-16.45a3.93,3.93,0,0,1,5,1.86A3.88,3.88,0,0,1,96,32.82Z"/><path class="cls-1" d="M132.32,148.41a15.95,15.95,0,1,0-22.55-.29l.3.29a14.69,14.69,0,0,0-8,13v26.73a3.19,3.19,0,0,0,3.19,3.19h31.89a3.19,3.19,0,0,0,3.19-3.19h0V161.44A14.69,14.69,0,0,0,132.32,148.41Zm-11.13-21a9.57,9.57,0,1,1-9.57,9.57A9.57,9.57,0,0,1,121.19,127.46ZM134,185H108.44V161.44a8.37,8.37,0,0,1,8.36-8.36h8.8a8.37,8.37,0,0,1,8.36,8.36Z"/><path class="cls-1" d="M183.35,148.41a15.95,15.95,0,1,0-22.55-.29l.29.29a14.69,14.69,0,0,0-8,13v26.73a3.19,3.19,0,0,0,3.19,3.19h31.89a3.19,3.19,0,0,0,3.19-3.19h0V161.44A14.69,14.69,0,0,0,183.35,148.41Zm-11.13-21a9.57,9.57,0,1,1-9.57,9.57A9.57,9.57,0,0,1,172.22,127.46ZM185,185H159.47V161.44a8.37,8.37,0,0,1,8.36-8.36h8.8a8.37,8.37,0,0,1,8.36,8.36Z"/></g></g></svg>