<svg xmlns="http://www.w3.org/2000/svg" viewBox="0 0 18.21 39.19"><defs><style>.cls-1{fill:#302f82;fill-rule:evenodd;}</style></defs><title>Asset 7</title><g id="Layer_2" data-name="Layer 2"><g id="Layer_1-2" data-name="Layer 1"><path class="cls-1" d="M4,19.75V38.7a.49.49,0,0,0,.49.49h7A.49.49,0,0,0,12,38.7V19.44h5.1a.49.49,0,0,0,.49-.45l.49-5.8a.49.49,0,0,0-.49-.53H12V8.54a1.75,1.75,0,0,1,1.75-1.75h3.93a.49.49,0,0,0,.49-.49V.49A.49.49,0,0,0,17.71,0H11.07A7.06,7.06,0,0,0,4,7.06v5.59H.49a.49.49,0,0,0-.49.49v5.8a.5.5,0,0,0,.49.49H4Z"/></g></g></svg>