<svg xmlns="http://www.w3.org/2000/svg" viewBox="0 0 38.11 31.39"><defs><style>.cls-1{fill:#302f82;}</style></defs><title>Asset 7</title><g id="Layer_2" data-name="Layer 2"><g id="Layer_1-2" data-name="Layer 1"><path class="cls-1" d="M38,3.76a15.64,15.64,0,0,1-3.85,1.1c.62-.1,1.53-1.23,1.9-1.68A7.08,7.08,0,0,0,37.3.85V.65l-.2,0a19.7,19.7,0,0,1-4.57,1.75.31.31,0,0,1-.32-.08,3.73,3.73,0,0,0-.4-.41A8.07,8.07,0,0,0,29.58.56,7.72,7.72,0,0,0,26.19,0,8.13,8.13,0,0,0,23,.93a8.3,8.3,0,0,0-2.6,2.12,8,8,0,0,0-1.55,3.11,8.41,8.41,0,0,0-.08,3.28c0,.18,0,.21-.16.18-6.28-.93-11.49-3.18-15.71-8-.18-.21-.28-.21-.43,0-1.85,2.77-1,7.23,1.36,9.41.31.29.63.58,1,.85a8,8,0,0,1-3-.85c-.18-.12-.28,0-.29.16a4.75,4.75,0,0,0,0,.9,8.06,8.06,0,0,0,5,6.42,4.69,4.69,0,0,0,1,.31,9,9,0,0,1-3,.09c-.22,0-.3.07-.22.27,1.31,3.57,4.13,4.63,6.25,5.23.28.05.57.05.85.12l-.05.05c-.7,1.07-3.13,1.87-4.27,2.26a15.27,15.27,0,0,1-6.48.83c-.35,0-.42,0-.51,0s0,.14.1.23c.44.29.89.55,1.35.8a21.43,21.43,0,0,0,4.33,1.73c7.79,2.15,16.56.57,22.4-5.24,4.59-4.56,6.2-10.85,6.2-17.15,0-.25.29-.38.46-.51a15.14,15.14,0,0,0,3-3.17.92.92,0,0,0,.19-.61v0C38.11,3.66,38.12,3.69,38,3.76Z"/></g></g></svg>